<?xml version="1.0" encoding="utf-8"?>
<!-- Generator: Adobe Illustrator 23.0.1, SVG Export Plug-In . SVG Version: 6.00 Build 0)  -->
<svg version="1.1" id="Слой_1" xmlns="http://www.w3.org/2000/svg" xmlns:xlink="http://www.w3.org/1999/xlink" x="0px" y="0px"
	 width="19px" height="19px" viewBox="0 0 19 19" enable-background="new 0 0 19 19" xml:space="preserve">
<circle id="XMLID_1038_" fill="none" stroke="#584E68" stroke-width="0.5" stroke-miterlimit="10" cx="9.5" cy="9.5" r="8.5"/>
<path id="XMLID_1037_" fill="none" stroke="#584E68" stroke-width="0.5" stroke-miterlimit="10" d="M4.8994846,7.2654638
	C6.2780042,6.299458,13.75,6.2796392,13.75,6.2796392s1.862113,4.0966492,0.6353092,5.9149485
	s-7.8865981,1.2487116-9.2010307,0.4600515S4.4206018,7.6010437,4.8994846,7.2654638z"/>
<path id="XMLID_1036_" fill="none" stroke="#584E68" stroke-width="0.5" stroke-miterlimit="10" d="M10.9585209,9.4154034
	c1.6907988,0.9234715,3.4267883,2.7791843,3.4267883,2.7791843"/>
<path id="XMLID_1035_" fill="none" stroke="#584E68" stroke-width="0.5" stroke-miterlimit="10" d="M5.0380726,12.5448713
	c-0.019835-0.4784632,1.0511742-1.947567,2.3515162-2.8664446"/>
<path id="XMLID_1032_" fill="none" stroke="#584E68" stroke-width="0.5" stroke-miterlimit="10" d="M9.368557,9.8411455
	c-2.9214711,0.3463573-5.0243964-1.9842215-4.560523-2.4661627S13.4652061,5.9510307,13.75,6.2796392
	C14.0347939,6.6082473,12.5889177,9.4593525,9.368557,9.8411455z"/>
</svg>
