<?xml version="1.0" encoding="utf-8"?>
<!-- Generator: Adobe Illustrator 23.0.1, SVG Export Plug-In . SVG Version: 6.00 Build 0)  -->
<svg version="1.1" id="Слой_1" xmlns="http://www.w3.org/2000/svg" xmlns:xlink="http://www.w3.org/1999/xlink" x="0px" y="0px"
	 width="19px" height="19px" viewBox="0 0 19 19" enable-background="new 0 0 19 19" xml:space="preserve">
<ellipse id="XMLID_999_" fill="none" stroke="#584E68" stroke-width="0.5" stroke-miterlimit="10" cx="9.739583" cy="9.4375" rx="8.739583" ry="8.4375"/>
<g id="XMLID_984_">
	<g>
		<path id="XMLID_32_" fill="none" stroke="#584E68" stroke-width="0.5" stroke-miterlimit="10" d="M2.4035835,14.9333353
			 M4.4599795,6.8207774v-0.000082c-0.2762332,0-0.5524678-0.0003676-0.8286989,0.0004096
			C3.5913498,6.8212171,3.5503814,6.8223519,3.5117369,6.8308392c-0.075814,0.0166492-0.1558623,0.022521-0.2194777,0.0749798
			C3.2461538,6.9438386,3.2140861,6.9877853,3.2127311,7.0479255C3.2108033,7.133503,3.2399666,7.2128577,3.2718575,7.2903924
			C3.3032026,7.3666,3.3416309,7.4400864,3.3767412,7.5148587c0.0489523,0.1042514,0.0965052,0.2091336,0.1468933,0.3127322
			c0.0490313,0.1008081,0.1009355,0.2003126,0.1514773,0.300437c0.0512142,0.1014557,0.102495,0.2028818,0.1533203,0.3045197
			c0.0132163,0.0264292,0.0234346,0.054307,0.0374653,0.0802946c0.0406439,0.0752821,0.0828021,0.1498013,0.1238017,0.2249069
			c0.0194156,0.0355673,0.036648,0.0722551,0.0564353,0.1076193C4.0949459,8.9326,4.1447034,9.0193386,4.1940045,9.1063147
			c0.0846982,0.1494246,0.1679883,0.299613,0.2544074,0.448103C4.5245376,9.6852207,4.6041965,9.814105,4.6821456,9.9439201
			c0.0168982,0.028141,0.0320692,0.0572968,0.0499158,0.0848494c0.0569963,0.0879936,0.1146269,0.1756077,0.1724758,0.2630825
			c0.0845737,0.1278887,0.1670208,0.2571812,0.2550621,0.3828135c0.0890036,0.1270046,0.1837478,0.2502594,0.2759132,0.3752003
			c0.0288286,0.0390806,0.0566154,0.0789042,0.0863423,0.1173325c0.05756,0.0744076,0.115859,0.1482878,0.1744609,0.2219353
			c0.0273352,0.0343533,0.0552359,0.0683575,0.0843625,0.1012983c0.092648,0.104785,0.1847296,0.2100801,0.2795062,0.3130522
			c0.0649724,0.0705929,0.1315231,0.1402025,0.2019768,0.2056255c0.0843053,0.0782871,0.1736112,0.1515503,0.2605906,0.2271614
			c0.1373196,0.1193743,0.2832742,0.2276859,0.4406648,0.3213997c0.0068264,0.0040655,0.0139132,0.007864,0.0201793,0.0126419
			c0.1025381,0.0781822,0.2190566,0.1344671,0.3320489,0.1960182c0.0711532,0.0387592,0.1446471,0.0737543,0.2184677,0.1076412
			c0.0753255,0.0345783,0.1513581,0.0681133,0.2288485,0.0978079c0.1040936,0.0398884,0.2097654,0.075964,0.3150477,0.1129084
			c0.0194864,0.0068378,0.0403538,0.009985,0.0605564,0.0149422c0.0185766,0.0045586,0.0371552,0.0091143,0.0556622,0.0139256
			c0.0867271,0.0225439,0.1730795,0.0465593,0.2603054,0.0671234c0.0371132,0.00875,0.0763216,0.0088358,0.1140766,0.0155048
			c0.069334,0.0122471,0.1379175,0.0287905,0.2075033,0.0392904c0.1014261,0.0153036,0.2032309,0.0254803,0.3065577,0.0247002
			c0.2730026-0.0020599,0.5460348-0.0004511,0.8190546-0.0004454c0.0208616,0.000001,0.042201,0.00142,0.062501-0.0021515
			c0.0863829-0.0151949,0.1647978-0.053051,0.239109-0.0944071c0.0985842-0.0548649,0.1282949-0.1562023,0.1476097-0.2554464
			c0.0131989-0.0678177,0.0090151-0.1388254,0.0120659-0.2084293c0.0012903-0.0294132-0.0021811-0.0593739,0.0023127-0.0882444
			c0.0221357-0.1422148,0.0320387-0.286272,0.0750484-0.4253569c0.0290298-0.0938787,0.0679216-0.1832342,0.1147747-0.2696171
			c0.0366583-0.0675879,0.0950212-0.1167498,0.1569614-0.1612263c0.07969-0.0572233,0.1653872-0.0827217,0.2659483-0.0492516
			c0.135644,0.0451479,0.2459669,0.1267366,0.3475981,0.2193613c0.0909071,0.0828505,0.1750107,0.1727123,0.2610683,0.260438
			c0.0286207,0.0291758,0.0535097,0.0617294,0.0809574,0.0920191c0.0580826,0.0640984,0.1162949,0.1280975,0.1752787,0.1914215
			c0.0450459,0.0483589,0.0917664,0.0952597,0.1370325,0.1434307c0.1380892,0.1469479,0.2815466,0.2877598,0.4483376,0.4057283
			c0.1441345,0.1019449,0.3022146,0.1719456,0.4728317,0.2199631c0.100337,0.0282383,0.2021008,0.0313692,0.3048601,0.0290613
			c0.0673151-0.0015116,0.1345854-0.0067778,0.2018814-0.0068855c0.493042-0.0007935,0.9860849-0.0009289,1.4791279-0.0005445
			c0.0473099,0.0000362,0.0922155-0.0068665,0.136631-0.0225401c0.0510654-0.0180197,0.1031055-0.033515,0.1549368-0.0494547
			c0.0831776-0.0255795,0.1531019-0.0677013,0.2049274-0.1380711c0.0635452-0.0862827,0.0736837-0.1828012,0.0506706-0.279768
			c-0.0176964-0.0745649-0.050662-0.1471844-0.0933838-0.2128344c-0.0742254-0.1140566-0.1502037-0.2271786-0.2295475-0.3379564
			c-0.0491714-0.0686541-0.1049833-0.1329842-0.1595449-0.1978989c-0.0423698-0.0504131-0.0868769-0.0991917-0.1315651-0.1477261
			c-0.0158834-0.017251-0.0361471-0.0306864-0.0526037-0.0475111c-0.0681858-0.0697088-0.1353559-0.1403437-0.2035313-0.210062
			c-0.0561657-0.0574379-0.1121817-0.1150742-0.170145-0.1707993c-0.0760384-0.073101-0.1539268-0.1444092-0.2310104-0.2164974
			c-0.0103807-0.0097084-0.0204878-0.0196981-0.0310946-0.0291691c-0.0835934-0.0746288-0.1672831-0.1491556-0.2509251-0.2237339
			c-0.0094337-0.0084124-0.0181837-0.0176353-0.0282116-0.0253134c-0.0974884-0.0746546-0.1737795-0.1692495-0.2583303-0.2560339
			c-0.0477142-0.048975-0.0804291-0.1075363-0.1101084-0.1679811c-0.0373135-0.0759916-0.0565395-0.1535816-0.0393982-0.2384291
			c0.0218668-0.108243,0.0650444-0.2081003,0.128089-0.2987337c0.0830698-0.1194239,0.1693649-0.236886,0.2579041-0.352603
			c0.1085339-0.1418524,0.2209244-0.2809534,0.331459-0.421381c0.128129-0.1627817,0.2574472-0.3247147,0.3836031-0.4889107
			c0.0897989-0.1168776,0.1755981-0.2366343,0.2624311-0.3556185c0.0369473-0.0506287,0.0723391-0.1023312,0.1077776-0.1539679
			c0.0433235-0.0631266,0.0867281-0.1262226,0.1286774-0.1901999c0.0454674-0.0693398,0.0918493-0.1383104,0.13309-0.2099848
			c0.0373497-0.0649133,0.0690689-0.1329093,0.1018734-0.2001801c0.029356-0.0601945,0.0564013-0.1214352,0.0852289-0.1818752
			c0.0236244-0.0495343,0.0322304-0.1039143,0.0516243-0.1539936c0.0258217-0.0666795,0.0252018-0.1333175,0.0251617-0.201324
			c-0.0000296-0.0494404-0.02672-0.0907888-0.0560713-0.1253433c-0.0377359-0.0444221-0.0936432-0.0745564-0.1499548-0.0885677
			c-0.0880413-0.0219069-0.179616-0.04214-0.2698059-0.0425982c-0.6777143-0.0034466-1.3554573-0.0017395-2.0331907-0.0021009
			c-0.0581198-0.000031-0.1158028-0.0018559-0.1676702,0.0301404c-0.0077267,0.0047674-0.0186701,0.004375-0.0275707,0.007741
			c-0.0117741,0.0044532-0.0256109,0.0077581-0.0339994,0.0159259c-0.0315514,0.0307231-0.0637436,0.0613518-0.0911474,0.0954247
			c-0.0661001,0.0821838-0.0860586,0.1856852-0.1324167,0.277216c-0.0245085,0.0483894-0.0383968,0.1016908-0.0610542,0.1510739
			c-0.0642319,0.1399989-0.1302195,0.2792501-0.1962509,0.4184718C12.2106323,7.8416219,12.1938,7.8646502,12.181654,7.8897762
			c-0.030467,0.0630317-0.0578709,0.1274815-0.0895681,0.1899118c-0.0465631,0.091711-0.093153,0.1835794-0.1445837,0.2727718
			c-0.0591803,0.1026297-0.1223669,0.2031775-0.1861734,0.3032284c-0.0647764,0.1015739-0.1321354,0.2016211-0.198925,0.3019886
			c-0.046772,0.0702868-0.0926304,0.1412487-0.1423388,0.2095757c-0.0442295,0.0607939-0.0918446,0.1194344-0.1404076,0.1771097
			c-0.0586395,0.0696459-0.1199875,0.1371613-0.1799192,0.2057972c-0.0855207,0.0979424-0.1841183,0.181778-0.2985258,0.2462864
			c-0.0601711,0.0339289-0.1284447,0.0423918-0.1952257,0.0181427c-0.0489683-0.0177813-0.0838718-0.0561533-0.1162624-0.0945215
			c-0.0644827-0.0763836-0.0971909-0.1680984-0.1152096-0.262166c-0.0179996-0.0939732-0.0283203-0.1905146-0.0293808-0.2860603
			c-0.0020447-0.184288,0.0050926-0.3686647,0.0078964-0.5530119c0.0036535-0.24016,0.0067959-0.4803286,0.0101566-0.7204928
			c0.0006733-0.0480552,0.000288-0.0961499,0.0022202-0.1441579c0.0050421-0.125298,0.0129099-0.2505169,0.0159798-0.3758512
			c0.0015125-0.0617595-0.004549-0.123735-0.0081625-0.1855593c-0.0053329-0.0912442-0.015605-0.180603-0.0475454-0.2687817
			c-0.0281315-0.0776629-0.0738411-0.1398902-0.1318665-0.1962709c-0.0144405-0.0140309-0.0318985-0.0263233-0.0501232-0.0353708
			c-0.0886545-0.0440159-0.178647-0.084434-0.2812395-0.0876889C9.8468113,6.6041589,9.8314247,6.5972629,9.8158531,6.5935946
			C9.7925148,6.5880957,9.769393,6.5807095,9.745697,6.5778389C9.6422825,6.5653114,9.5387506,6.5536194,9.4351416,6.5426874
			c-0.0445833-0.004704-0.0894499-0.0095263-0.1342039-0.0096722C9.0295267,6.5321298,8.75811,6.532557,8.4866943,6.5326371
			C8.4706469,6.5326419,8.4545422,6.5327563,8.4385595,6.5339818c-0.1150732,0.0088234-0.230176,0.0173793-0.3451538,0.0272608
			c-0.0446711,0.003839-0.089282,0.0095425-0.1334949,0.0168128C7.9047275,6.5871296,7.8498302,6.5980177,7.7951303,6.6095419
			C7.7749271,6.6137986,7.7555037,6.621736,7.73597,6.6286435C7.7194128,6.6344981,7.7037501,6.6436362,7.6867619,6.6472778
			C7.5851974,6.6690459,7.4996519,6.7205982,7.4218745,6.783803C7.3756495,6.8213673,7.3282061,6.859756,7.3024249,6.9156895
			C7.2715592,6.9826536,7.289463,7.0140486,7.3651099,7.0242081C7.3888683,7.0273986,7.4134521,7.0282826,7.436111,7.0350509
			c0.0687866,0.0205455,0.1372218,0.0423236,0.20048,0.0767283c0.0745792,0.0405622,0.1442037,0.0857019,0.1962142,0.1541176
			C7.887866,7.338325,7.9250979,7.4181056,7.9497795,7.5036197C7.972611,7.5827198,7.9854531,7.6636248,7.9981461,7.7450213
			c0.0177374,0.1137424,0.0241528,0.2279439,0.0310793,0.3420949c0.007596,0.125185,0.0094051,0.2508192,0.0096207,0.3762636
			c0.0002098,0.1223221-0.0096149,0.2447739-0.0063305,0.36695C8.0372114,9.0049953,8.0092163,9.17626,7.9854584,9.3480082
			C7.9761491,9.415308,7.9598141,9.4821367,7.9409838,9.5476542C7.9212303,9.6163855,7.8899503,9.681529,7.8481007,9.7405415
			C7.8218694,9.7775307,7.7899308,9.8098583,7.7440348,9.8272905C7.679358,9.8518562,7.6153221,9.8533573,7.5522547,9.8263006
			C7.5159078,9.810708,7.480546,9.7919426,7.4473176,9.7708254c-0.0602427-0.0382862-0.1190515-0.0784492-0.165916-0.1329861
			C7.2241254,9.571187,7.1618614,9.5083694,7.1070652,9.43993C7.0266671,9.3395147,6.9482565,9.2373829,6.8740716,9.1326342
			C6.8043995,9.0342579,6.7405472,8.9319916,6.6755328,8.8306007C6.6063042,8.7226353,6.5377827,8.6142225,6.4707961,8.5049524
			C6.4356737,8.4476585,6.4041204,8.3883047,6.3716297,8.3295336C6.3173256,8.2313061,6.2618637,8.133625,6.2100534,8.0341768
			c-0.0511398-0.0981593-0.098-0.1983895-0.1474185-0.2973948C6.0306344,7.6726718,5.9949188,7.6101866,5.9653144,7.5450888
			c-0.0450935-0.0991554-0.0861826-0.2000051-0.1292968-0.300005C5.821269,7.2108741,5.8030457,7.1778727,5.7907891,7.1428895
			C5.7661228,7.0724874,5.7266169,7.0101275,5.671309,6.9606862C5.5684261,6.8687177,5.4418869,6.8234773,5.3031206,6.8217945
			C5.0221138,6.818387,4.7410312,6.8207774,4.4599795,6.8207774z"/>
		<path id="XMLID_31_" fill="none" stroke="#584E68" stroke-width="0.5" stroke-miterlimit="10" d="M4.4599795,6.8207774
			c0.2810516,0,0.5621343-0.0023904,0.8431411,0.0010171C5.4418869,6.8234773,5.5684261,6.8687177,5.671309,6.9606862
			c0.0553079,0.0494413,0.0948138,0.1118011,0.1194801,0.1822033C5.8030457,7.1778727,5.821269,7.2108741,5.8360176,7.2450838
			c0.0431142,0.0999999,0.0842032,0.2008495,0.1292968,0.300005c0.0296044,0.0650978,0.06532,0.127583,0.0973206,0.1916933
			c0.0494184,0.0990052,0.0962787,0.1992354,0.1474185,0.2973948C6.2618637,8.133625,6.3173256,8.2313061,6.3716297,8.3295336
			c0.0324907,0.0587711,0.064044,0.118125,0.0991664,0.1754189c0.0669866,0.1092701,0.1355081,0.2176828,0.2047367,0.3256483
			c0.0650144,0.1013908,0.1288667,0.2036572,0.1985388,0.3020334C6.9482565,9.2373829,7.0266671,9.3395147,7.1070652,9.43993
			C7.1618614,9.5083694,7.2241254,9.571187,7.2814016,9.6378393c0.0468645,0.0545368,0.1056733,0.0946999,0.165916,0.1329861
			C7.480546,9.7919426,7.5159078,9.810708,7.5522547,9.8263006C7.6153221,9.8533573,7.679358,9.8518562,7.7440348,9.8272905
			c0.0458961-0.0174322,0.0778346-0.0497599,0.1040659-0.0867491c0.0418496-0.0590124,0.0731297-0.124156,0.0928831-0.1928873
			c0.0188303-0.0655174,0.0351653-0.1323462,0.0444746-0.199646C8.0092163,9.17626,8.0372114,9.0049953,8.0325155,8.8303299
			c-0.0032845-0.1221762,0.0065403-0.244628,0.0063305-0.36695C8.0386305,8.3379354,8.0368214,8.2123013,8.0292253,8.0871162
			c-0.0069265-0.114151-0.0133419-0.2283525-0.0310793-0.3420949C7.9854531,7.6636248,7.972611,7.5827198,7.9497795,7.5036197
			C7.9250979,7.4181056,7.887866,7.338325,7.8328052,7.2658968C7.7807946,7.1974812,7.7111702,7.1523414,7.636591,7.1117792
			c-0.0632582-0.0344048-0.1316934-0.0561829-0.20048-0.0767283C7.4134521,7.0282826,7.3888683,7.0273986,7.3651099,7.0242081
			C7.289463,7.0140486,7.2715592,6.9826536,7.3024249,6.9156895C7.3282061,6.859756,7.3756495,6.8213673,7.4218745,6.783803
			c0.0777774-0.0632048,0.1633229-0.1147571,0.2648873-0.1365252C7.7037501,6.6436362,7.7194128,6.6344981,7.73597,6.6286435
			C7.7555037,6.621736,7.7749271,6.6137986,7.7951303,6.6095419c0.0546999-0.0115242,0.1095972-0.0224123,0.1647806-0.0314865
			C8.0041237,6.570785,8.0487347,6.5650816,8.0934057,6.5612426c0.1149778-0.0098815,0.2300806-0.0184374,0.3451538-0.0272608
			c0.0159826-0.0012255,0.0320873-0.0013399,0.0481348-0.0013447C8.75811,6.532557,9.0295267,6.5321298,9.3009377,6.5330153
			c0.044754,0.0001459,0.0896206,0.0049682,0.1342039,0.0096722c0.1036091,0.010932,0.2071409,0.022624,0.3105555,0.0351515
			C9.769393,6.5807095,9.7925148,6.5880957,9.8158531,6.5935946c0.0155716,0.0036683,0.0309582,0.0105643,0.0465965,0.0110607
			c0.1025925,0.0032549,0.192585,0.043673,0.2812395,0.0876889c0.0182247,0.0090475,0.0356827,0.0213399,0.0501232,0.0353708
			c0.0580254,0.0563807,0.103735,0.118608,0.1318665,0.1962709c0.0319405,0.0881786,0.0422125,0.1775374,0.0475454,0.2687817
			c0.0036135,0.0618243,0.009675,0.1237998,0.0081625,0.1855593C10.3783169,7.5036612,10.3704491,7.62888,10.365407,7.754178
			c-0.0019321,0.048008-0.0015469,0.0961027-0.0022202,0.1441579c-0.0033607,0.2401643-0.0065031,0.4803329-0.0101566,0.7204928
			c-0.0028038,0.1843472-0.0099411,0.3687239-0.0078964,0.5530119c0.0010605,0.0955458,0.0113811,0.1920872,0.0293808,0.2860603
			c0.0180187,0.0940676,0.0507269,0.1857824,0.1152096,0.262166c0.0323906,0.0383682,0.0672941,0.0767403,0.1162624,0.0945215
			c0.066781,0.0242491,0.1350546,0.0157862,0.1952257-0.0181427c0.1144075-0.0645084,0.2130051-0.148344,0.2985258-0.2462864
			c0.0599318-0.0686359,0.1212797-0.1361513,0.1799192-0.2057972c0.048563-0.0576754,0.0961781-0.1163158,0.1404076-0.1771097
			c0.0497084-0.068327,0.0955667-0.1392889,0.1423388-0.2095757c0.0667896-0.1003675,0.1341486-0.2004147,0.198925-0.3019886
			c0.0638065-0.1000509,0.1269932-0.2005987,0.1861734-0.3032284c0.0514307-0.0891924,0.0980206-0.1810608,0.1445837-0.2727718
			c0.0316973-0.0624304,0.0591011-0.1268802,0.0895681-0.1899118c0.012146-0.025126,0.0289783-0.0481544,0.0409288-0.0733528
			c0.0660315-0.1392217,0.132019-0.2784729,0.1962509-0.4184718c0.0226574-0.0493832,0.0365458-0.1026845,0.0610542-0.1510739
			c0.0463581-0.0915308,0.0663166-0.1950321,0.1324167-0.277216c0.0274038-0.0340729,0.0595961-0.0647016,0.0911474-0.0954247
			c0.0083885-0.0081677,0.0222254-0.0114727,0.0339994-0.0159259c0.0089006-0.003366,0.0198441-0.0029736,0.0275707-0.007741
			c0.0518675-0.0319963,0.1095505-0.0301714,0.1676702-0.0301404c0.6777334,0.0003614,1.3554764-0.0013456,2.0331907,0.0021009
			c0.0901899,0.0004582,0.1817646,0.0206914,0.2698059,0.0425982c0.0563116,0.0140114,0.1122189,0.0441456,0.1499548,0.0885677
			c0.0293512,0.0345545,0.0560417,0.0759029,0.0560713,0.1253433c0.0000401,0.0680065,0.0006599,0.1346445-0.0251617,0.201324
			c-0.0193939,0.0500793-0.0279999,0.1044593-0.0516243,0.1539936c-0.0288277,0.0604401-0.0558729,0.1216807-0.0852289,0.1818752
			c-0.0328045,0.0672708-0.0645237,0.1352668-0.1018734,0.2001801c-0.0412407,0.0716743-0.0876226,0.140645-0.13309,0.2099848
			c-0.0419493,0.0639772-0.0853539,0.1270733-0.1286774,0.1901999c-0.0354385,0.0516367-0.0708303,0.1033392-0.1077776,0.1539679
			c-0.086833,0.1189842-0.1726322,0.2387409-0.2624311,0.3556185c-0.1261559,0.164196-0.2554741,0.326129-0.3836031,0.4889107
			c-0.1105347,0.1404276-0.2229252,0.2795286-0.331459,0.421381c-0.0885391,0.1157169-0.1748343,0.2331791-0.2579041,0.352603
			c-0.0630445,0.0906334-0.1062222,0.1904907-0.128089,0.2987337c-0.0171413,0.0848475,0.0020847,0.1624374,0.0393982,0.2384291
			c0.0296793,0.0604448,0.0623941,0.1190062,0.1101084,0.1679811c0.0845509,0.0867844,0.1608419,0.1813793,0.2583303,0.2560339
			c0.0100279,0.007678,0.0187778,0.016901,0.0282116,0.0253134c0.083642,0.0745783,0.1673317,0.1491051,0.2509251,0.2237339
			c0.0106068,0.0094709,0.0207138,0.0194607,0.0310946,0.0291691c0.0770836,0.0720882,0.1549721,0.1433964,0.2310104,0.2164974
			c0.0579634,0.0557251,0.1139793,0.1133614,0.170145,0.1707993c0.0681753,0.0697184,0.1353455,0.1403532,0.2035313,0.210062
			c0.0164566,0.0168247,0.0367203,0.0302601,0.0526037,0.0475111c0.0446882,0.0485344,0.0891953,0.0973129,0.1315651,0.1477261
			c0.0545616,0.0649147,0.1103735,0.1292448,0.1595449,0.1978989c0.0793438,0.1107779,0.1553221,0.2238998,0.2295475,0.3379564
			c0.0427217,0.06565,0.0756874,0.1382694,0.0933838,0.2128344c0.0230131,0.0969667,0.0128746,0.1934853-0.0506706,0.279768
			c-0.0518255,0.0703697-0.1217499,0.1124916-0.2049274,0.1380711c-0.0518312,0.0159397-0.1038713,0.031435-0.1549368,0.0494547
			c-0.0444155,0.0156736-0.0893211,0.0225763-0.136631,0.0225401c-0.4930429-0.0003843-0.9860859-0.0002489-1.4791279,0.0005445
			c-0.067296,0.0001078-0.1345663,0.005374-0.2018814,0.0068855c-0.1027594,0.0023079-0.2045231-0.000823-0.3048601-0.0290613
			c-0.1706171-0.0480175-0.3286972-0.1180182-0.4728317-0.2199631c-0.166791-0.1179686-0.3102484-0.2587805-0.4483376-0.4057283
			c-0.0452662-0.048171-0.0919867-0.0950718-0.1370325-0.1434307c-0.0589838-0.063324-0.1171961-0.1273232-0.1752787-0.1914215
			c-0.0274477-0.0302896-0.0523367-0.0628433-0.0809574-0.0920191c-0.0860577-0.0877256-0.1701612-0.1775875-0.2610683-0.260438
			c-0.1016312-0.0926247-0.2119541-0.1742134-0.3475981-0.2193613c-0.1005611-0.0334702-0.1862583-0.0079718-0.2659483,0.0492516
			c-0.0619402,0.0444765-0.1203032,0.0936384-0.1569614,0.1612263c-0.0468531,0.0863829-0.0857449,0.1757383-0.1147747,0.2696171
			c-0.0430098,0.1390848-0.0529127,0.2831421-0.0750484,0.4253569c-0.0044937,0.0288706-0.0010223,0.0588312-0.0023127,0.0882444
			c-0.0030508,0.0696039,0.001133,0.1406116-0.0120659,0.2084293c-0.0193148,0.0992441-0.0490255,0.2005816-0.1476097,0.2554464
			c-0.0743113,0.0413561-0.1527262,0.0792122-0.239109,0.0944071c-0.0202999,0.0035715-0.0416393,0.0021524-0.062501,0.0021515
			c-0.2730198-0.0000057-0.546052-0.0016146-0.8190546,0.0004454c-0.1033268,0.0007801-0.2051315-0.0093966-0.3065577-0.0247002
			c-0.0695858-0.0105-0.1381693-0.0270433-0.2075033-0.0392904c-0.037755-0.006669-0.0769634-0.0067549-0.1140766-0.0155048
			c-0.0872259-0.0205641-0.1735783-0.0445795-0.2603054-0.0671234c-0.018507-0.0048113-0.0370855-0.009367-0.0556622-0.0139256
			c-0.0202026-0.0049572-0.04107-0.0081043-0.0605564-0.0149422c-0.1052823-0.0369444-0.2109542-0.07302-0.3150477-0.1129084
			c-0.0774903-0.0296946-0.153523-0.0632296-0.2288485-0.0978079c-0.0738206-0.0338869-0.1473145-0.068882-0.2184677-0.1076412
			c-0.1129923-0.0615511-0.2295108-0.117836-0.3320489-0.1960182c-0.0062661-0.0047779-0.0133529-0.0085764-0.0201793-0.0126419
			c-0.1573906-0.0937138-0.3033452-0.2020254-0.4406648-0.3213997c-0.0869794-0.0756111-0.1762853-0.1488743-0.2605906-0.2271614
			c-0.0704536-0.065423-0.1370044-0.1350327-0.2019768-0.2056255c-0.0947766-0.102972-0.1868582-0.2082672-0.2795062-0.3130522
			c-0.0291266-0.0329409-0.0570273-0.0669451-0.0843625-0.1012983c-0.0586019-0.0736475-0.1169009-0.1475277-0.1744609-0.2219353
			c-0.029727-0.0384283-0.0575137-0.0782518-0.0863423-0.1173325c-0.0921655-0.1249409-0.1869097-0.2481956-0.2759132-0.3752003
			c-0.0880413-0.1256323-0.1704884-0.2549248-0.2550621-0.3828135c-0.0578489-0.0874748-0.1154795-0.1750889-0.1724758-0.2630825
			c-0.0178466-0.0275526-0.0330176-0.0567083-0.0499158-0.0848494c-0.077949-0.1298151-0.157608-0.2586994-0.2337337-0.3895025
			c-0.0864191-0.14849-0.1697092-0.2986784-0.2544074-0.448103C4.1447034,9.0193386,4.0949459,8.9326,4.0461345,8.8453684
			c-0.0197873-0.0353642-0.0370197-0.072052-0.0564353-0.1076193C3.9486995,8.6626434,3.9065413,8.5881243,3.8658974,8.5128422
			C3.8518667,8.4868546,3.8416483,8.4589767,3.8284321,8.4325476C3.7776067,8.3309097,3.726326,8.2294836,3.6751118,8.1280279
			c-0.0505419-0.1001244-0.1024461-0.1996288-0.1514773-0.300437C3.4732463,7.7239923,3.4256935,7.6191101,3.3767412,7.5148587
			C3.3416309,7.4400864,3.3032026,7.3666,3.2718575,7.2903924C3.2399666,7.2128577,3.2108033,7.133503,3.2127311,7.0479255
			c0.0013549-0.0601401,0.0334227-0.1040869,0.0795281-0.1421065c0.0636153-0.0524588,0.1436636-0.0583305,0.2194777-0.0749798
			c0.0386446-0.0084872,0.079613-0.0096221,0.1195438-0.0097342c0.2762311-0.0007772,0.5524657-0.0004096,0.8286989-0.0004096
			V6.8207774z"/>
	</g>
</g>
</svg>
